<mxfile host="app.diagrams.net" modified="2023-07-10T02:42:54.660Z" agent="Mozilla/5.0 (Windows NT 10.0; Win64; x64) AppleWebKit/537.36 (KHTML, like Gecko) Chrome/114.0.0.0 Safari/537.36" etag="_UKM7bcYq8s7nZbmiBPv" version="21.6.1" type="github">
  <diagram name="Page-1" id="6133507b-19e7-1e82-6fc7-422aa6c4b21f">
    <mxGraphModel dx="1659" dy="918" grid="1" gridSize="10" guides="1" tooltips="1" connect="1" arrows="1" fold="1" page="1" pageScale="1" pageWidth="1100" pageHeight="850" background="none" math="0" shadow="0">
      <root>
        <mxCell id="0" />
        <mxCell id="1" parent="0" />
        <mxCell id="MJkgy0iSr_y3zin01zqr-3" value="Operation" style="swimlane;fontStyle=1;align=center;verticalAlign=top;childLayout=stackLayout;horizontal=1;startSize=26;horizontalStack=0;resizeParent=1;resizeParentMax=0;resizeLast=0;collapsible=1;marginBottom=0;whiteSpace=wrap;html=1;fontSize=16;" vertex="1" parent="1">
          <mxGeometry x="253" y="53" width="132" height="112" as="geometry" />
        </mxCell>
        <mxCell id="MJkgy0iSr_y3zin01zqr-4" value="+ num1: double" style="text;strokeColor=none;fillColor=none;align=left;verticalAlign=top;spacingLeft=4;spacingRight=4;overflow=hidden;rotatable=0;points=[[0,0.5],[1,0.5]];portConstraint=eastwest;whiteSpace=wrap;html=1;fontSize=16;" vertex="1" parent="MJkgy0iSr_y3zin01zqr-3">
          <mxGeometry y="26" width="132" height="26" as="geometry" />
        </mxCell>
        <mxCell id="MJkgy0iSr_y3zin01zqr-8" value="+ num1: double" style="text;strokeColor=none;fillColor=none;align=left;verticalAlign=top;spacingLeft=4;spacingRight=4;overflow=hidden;rotatable=0;points=[[0,0.5],[1,0.5]];portConstraint=eastwest;whiteSpace=wrap;html=1;fontSize=16;" vertex="1" parent="MJkgy0iSr_y3zin01zqr-3">
          <mxGeometry y="52" width="132" height="26" as="geometry" />
        </mxCell>
        <mxCell id="MJkgy0iSr_y3zin01zqr-5" value="" style="line;strokeWidth=1;fillColor=none;align=left;verticalAlign=middle;spacingTop=-1;spacingLeft=3;spacingRight=3;rotatable=0;labelPosition=right;points=[];portConstraint=eastwest;strokeColor=inherit;fontSize=16;" vertex="1" parent="MJkgy0iSr_y3zin01zqr-3">
          <mxGeometry y="78" width="132" height="8" as="geometry" />
        </mxCell>
        <mxCell id="MJkgy0iSr_y3zin01zqr-6" value="+ result(): double" style="text;strokeColor=none;fillColor=none;align=left;verticalAlign=top;spacingLeft=4;spacingRight=4;overflow=hidden;rotatable=0;points=[[0,0.5],[1,0.5]];portConstraint=eastwest;whiteSpace=wrap;html=1;fontSize=16;" vertex="1" parent="MJkgy0iSr_y3zin01zqr-3">
          <mxGeometry y="86" width="132" height="26" as="geometry" />
        </mxCell>
        <mxCell id="MJkgy0iSr_y3zin01zqr-9" value="&lt;p style=&quot;margin:0px;margin-top:4px;text-align:center;&quot;&gt;&lt;b&gt;Add&lt;/b&gt;&lt;/p&gt;&lt;hr size=&quot;1&quot;&gt;&lt;div style=&quot;height:2px;&quot;&gt;+ result(): double&lt;/div&gt;" style="verticalAlign=top;align=left;overflow=fill;fontSize=12;fontFamily=Helvetica;html=1;whiteSpace=wrap;" vertex="1" parent="1">
          <mxGeometry x="121" y="145" width="99" height="53" as="geometry" />
        </mxCell>
        <mxCell id="MJkgy0iSr_y3zin01zqr-10" value="&lt;p style=&quot;margin:0px;margin-top:4px;text-align:center;&quot;&gt;&lt;b&gt;Mul&lt;/b&gt;&lt;/p&gt;&lt;hr size=&quot;1&quot;&gt;&lt;div style=&quot;height:2px;&quot;&gt;+ result(): double&lt;/div&gt;" style="verticalAlign=top;align=left;overflow=fill;fontSize=12;fontFamily=Helvetica;html=1;whiteSpace=wrap;" vertex="1" parent="1">
          <mxGeometry x="209" y="230" width="99" height="55" as="geometry" />
        </mxCell>
        <mxCell id="MJkgy0iSr_y3zin01zqr-11" value="&lt;p style=&quot;margin:0px;margin-top:4px;text-align:center;&quot;&gt;&lt;b&gt;Sub&lt;/b&gt;&lt;/p&gt;&lt;hr size=&quot;1&quot;&gt;&lt;div style=&quot;height:2px;&quot;&gt;+ result(): double&lt;/div&gt;" style="verticalAlign=top;align=left;overflow=fill;fontSize=12;fontFamily=Helvetica;html=1;whiteSpace=wrap;" vertex="1" parent="1">
          <mxGeometry x="418" y="143" width="99" height="55" as="geometry" />
        </mxCell>
        <mxCell id="MJkgy0iSr_y3zin01zqr-12" value="&lt;p style=&quot;margin:0px;margin-top:4px;text-align:center;&quot;&gt;&lt;b&gt;Div&lt;/b&gt;&lt;/p&gt;&lt;hr size=&quot;1&quot;&gt;&lt;div style=&quot;height:2px;&quot;&gt;+ result(): double&lt;/div&gt;" style="verticalAlign=top;align=left;overflow=fill;fontSize=12;fontFamily=Helvetica;html=1;whiteSpace=wrap;" vertex="1" parent="1">
          <mxGeometry x="330" y="230" width="100" height="55" as="geometry" />
        </mxCell>
        <mxCell id="MJkgy0iSr_y3zin01zqr-18" value="" style="endArrow=none;html=1;rounded=0;fontSize=12;startSize=8;endSize=8;curved=1;exitX=1;exitY=0.75;exitDx=0;exitDy=0;entryX=0;entryY=0.75;entryDx=0;entryDy=0;" edge="1" parent="1" source="MJkgy0iSr_y3zin01zqr-9" target="MJkgy0iSr_y3zin01zqr-11">
          <mxGeometry width="50" height="50" relative="1" as="geometry">
            <mxPoint x="550" y="237" as="sourcePoint" />
            <mxPoint x="600" y="187" as="targetPoint" />
          </mxGeometry>
        </mxCell>
        <mxCell id="MJkgy0iSr_y3zin01zqr-22" value="" style="endArrow=none;html=1;rounded=0;fontSize=12;startSize=8;endSize=8;curved=1;labelBorderColor=none;" edge="1" parent="1">
          <mxGeometry width="50" height="50" relative="1" as="geometry">
            <mxPoint x="259" y="184" as="sourcePoint" />
            <mxPoint x="259" y="230" as="targetPoint" />
          </mxGeometry>
        </mxCell>
        <mxCell id="MJkgy0iSr_y3zin01zqr-24" value="" style="endArrow=none;html=1;rounded=0;fontSize=12;startSize=8;endSize=8;curved=1;labelBorderColor=none;" edge="1" parent="1">
          <mxGeometry width="50" height="50" relative="1" as="geometry">
            <mxPoint x="380" y="184" as="sourcePoint" />
            <mxPoint x="380" y="230" as="targetPoint" />
          </mxGeometry>
        </mxCell>
        <mxCell id="MJkgy0iSr_y3zin01zqr-25" value="" style="triangle;whiteSpace=wrap;html=1;direction=north;" vertex="1" parent="1">
          <mxGeometry x="314" y="165" width="10" height="10" as="geometry" />
        </mxCell>
        <mxCell id="MJkgy0iSr_y3zin01zqr-26" value="" style="endArrow=none;html=1;exitX=0;exitY=0.5;exitDx=0;exitDy=0;curved=1;" edge="1" parent="1" source="MJkgy0iSr_y3zin01zqr-25">
          <mxGeometry width="50" height="50" relative="1" as="geometry">
            <mxPoint x="319" y="179" as="sourcePoint" />
            <mxPoint x="319" y="184" as="targetPoint" />
          </mxGeometry>
        </mxCell>
        <mxCell id="MJkgy0iSr_y3zin01zqr-27" value="" style="endArrow=open;endSize=12;dashed=1;html=1;rounded=0;entryX=0.991;entryY=0.059;entryDx=0;entryDy=0;entryPerimeter=0;exitX=0.008;exitY=0.84;exitDx=0;exitDy=0;exitPerimeter=0;" edge="1" parent="1" target="MJkgy0iSr_y3zin01zqr-8">
          <mxGeometry width="160" relative="1" as="geometry">
            <mxPoint x="551.28" y="106.84000000000003" as="sourcePoint" />
            <mxPoint x="730" y="150" as="targetPoint" />
          </mxGeometry>
        </mxCell>
        <mxCell id="MJkgy0iSr_y3zin01zqr-28" value="SimpleFactory" style="swimlane;fontStyle=1;align=center;verticalAlign=top;childLayout=stackLayout;horizontal=1;startSize=26;horizontalStack=0;resizeParent=1;resizeParentMax=0;resizeLast=0;collapsible=1;marginBottom=0;whiteSpace=wrap;html=1;" vertex="1" parent="1">
          <mxGeometry x="550" y="59" width="170" height="60" as="geometry" />
        </mxCell>
        <mxCell id="MJkgy0iSr_y3zin01zqr-30" value="" style="line;strokeWidth=1;fillColor=none;align=left;verticalAlign=middle;spacingTop=-1;spacingLeft=3;spacingRight=3;rotatable=0;labelPosition=right;points=[];portConstraint=eastwest;strokeColor=inherit;" vertex="1" parent="MJkgy0iSr_y3zin01zqr-28">
          <mxGeometry y="26" width="170" height="8" as="geometry" />
        </mxCell>
        <mxCell id="MJkgy0iSr_y3zin01zqr-31" value="+ createOperate(): Operation" style="text;strokeColor=none;fillColor=none;align=left;verticalAlign=top;spacingLeft=4;spacingRight=4;overflow=hidden;rotatable=0;points=[[0,0.5],[1,0.5]];portConstraint=eastwest;whiteSpace=wrap;html=1;" vertex="1" parent="MJkgy0iSr_y3zin01zqr-28">
          <mxGeometry y="34" width="170" height="26" as="geometry" />
        </mxCell>
      </root>
    </mxGraphModel>
  </diagram>
</mxfile>
